HIERARCHY
ROOT hip
{
	OFFSET 0.000000 0.000000 0.000000
	CHANNELS 6 Xposition Yposition Zposition Xrotation Zrotation Yrotation 
	JOINT abdomen
	{
		OFFSET 0.000000 3.422050 0.000000
		CHANNELS 3 Xrotation Zrotation Yrotation 
		JOINT chest
		{
			OFFSET 0.000000 8.486693 -0.684411
			CHANNELS 3 Xrotation Zrotation Yrotation 
			JOINT neck
			{
				OFFSET 0.000000 10.266162 -0.273764
				CHANNELS 3 Xrotation Zrotation Yrotation 
				JOINT head
				{
					OFFSET 0.000000 3.148285 0.000000
					CHANNELS 3 Xrotation Zrotation Yrotation 
					End Site
					{
						OFFSET 0.000000 3.148289 0.000000
					}
				}
			}
			JOINT lCollar
			{
				OFFSET 3.422053 6.707223 -0.821293
				CHANNELS 3 Yrotation Zrotation Xrotation 
				JOINT lShldr
				{
					OFFSET 3.285171 0.000000 0.000000
					CHANNELS 3 Zrotation Yrotation Xrotation 
					JOINT lForeArm
					{
						OFFSET 10.129278 0.000000 0.000000
						CHANNELS 3 Yrotation Zrotation Xrotation 
						JOINT lHand
						{
							OFFSET 8.486692 0.000000 0.000000
							CHANNELS 3 Zrotation Yrotation Xrotation 
							End Site
							{
								OFFSET 4.106464 0.000000 0.000000
							}
						}
					}
				}
			}
			JOINT rCollar
			{
				OFFSET -3.558935 6.707223 -0.821293
				CHANNELS 3 Yrotation Zrotation Xrotation 
				JOINT rShldr
				{
					OFFSET -3.148289 0.000000 0.000000
					CHANNELS 3 Zrotation Yrotation Xrotation 
					JOINT rForeArm
					{
						OFFSET -10.266159 0.000000 0.000000
						CHANNELS 3 Yrotation Zrotation Xrotation 
						JOINT rHand
						{
							OFFSET -8.349810 0.000000 0.000000
							CHANNELS 3 Zrotation Yrotation Xrotation 
							End Site
							{
								OFFSET -4.106464 0.000000 0.000000
							}
						}
					}
				}
			}
		}
	}
	JOINT lThigh
	{
		OFFSET 5.338403 -1.642589 1.368821
		CHANNELS 3 Xrotation Zrotation Yrotation 
		JOINT lShin
		{
			OFFSET -2.053232 -20.121670 0.000000
			CHANNELS 3 Xrotation Zrotation Yrotation 
			JOINT lFoot
			{
				OFFSET 0.000000 -19.300380 -1.231939
				CHANNELS 3 Xrotation Yrotation Zrotation 
				End Site
				{
					OFFSET 0.000000 -2.463878 4.653993
				}
			}
		}
	}
	JOINT rThigh
	{
		OFFSET -5.338403 -1.642589 1.368821
		CHANNELS 3 Xrotation Zrotation Yrotation 
		JOINT rShin
		{
			OFFSET 2.053232 -20.121670 0.000000
			CHANNELS 3 Xrotation Zrotation Yrotation 
			JOINT rFoot
			{
				OFFSET 0.000000 -19.300380 -1.231939
				CHANNELS 3 Xrotation Yrotation Zrotation 
				End Site
				{
					OFFSET 0.000000 -2.463878 4.653993
				}
			}
		}
	}
}
MOTION
Frames: 15
Frame Time: 0.033264
0.000000 43.528500 0.000000 0.000000 0.000000 0.000000 0.000000 0.000000 0.000000 0.000000 0.000000 0.000000 0.000000 0.000000 0.000000 0.000000 0.000000 0.000000 0.000000 0.000000 0.000000 0.000000 0.000000 0.000000 0.000000 0.000000 0.000000 0.000000 0.000000 0.000000 0.000000 0.000000 0.000000 0.000000 0.000000 0.000000 0.000000 0.000000 0.000000 0.000000 0.000000 0.000000 0.000000 0.000000 0.000000 0.000000 0.000000 0.000000 0.000000 0.000000 0.000000 0.000000 0.000000 0.000000 0.000000 0.000000 0.000000 0.000000 0.000000 0.000000 
0.723888 43.147030 34.810341 -7.999331 -0.000000 180.000000 2.846521 -0.455366 -0.327903 19.173615 -0.287779 -1.582583 0.173105 0.117151 0.000177 0.117155 0.000000 0.000000 -20.194021 -6.401581 1.151865 -60.602322 -15.900648 -2.029245 -55.580612 -19.685440 1.533273 6.459094 0.198381 3.407542 22.344179 8.518350 0.343080 60.852764 15.836577 -1.898983 55.864727 19.845715 1.401175 -9.044562 -1.953657 4.304298 -23.493313 11.050445 9.615976 29.065331 -0.588925 -0.508523 -10.695655 6.964340 -15.042828 -23.363663 -8.771374 -10.344039 29.252983 0.530267 0.523306 -10.810931 -6.813777 12.818839 
0.723888 43.147030 34.734581 -6.728317 -0.000000 180.000000 2.568743 -0.455384 -0.327769 20.225042 -0.287934 -1.582563 0.348438 0.233676 -0.014841 0.234651 0.000000 0.000000 -20.530848 -6.501170 0.772197 -60.392368 -16.080929 -2.165015 -54.691921 -19.384977 1.859452 5.853240 0.372158 2.947920 22.673100 8.585319 -0.049092 60.680256 16.028044 -2.018847 55.019947 19.561897 1.712098 -8.462311 -2.214416 3.880714 -21.886145 10.974775 9.501323 28.677923 -0.643298 -0.505586 -10.695655 6.964340 -15.042828 -21.792667 -8.559820 -9.952373 28.866186 0.574188 0.525580 -10.754272 -7.281925 12.821895 
0.723888 43.147030 34.658817 -5.455175 -0.000000 180.000000 2.290938 -0.455401 -0.327634 21.277903 -0.288090 -1.582546 0.523792 0.350279 -0.029507 0.352158 0.000000 0.000000 -20.868494 -6.598565 0.391760 -60.181755 -16.260744 -2.301607 -53.805847 -19.079494 2.180375 5.245545 0.541183 2.486130 23.002626 8.650074 -0.441824 60.507122 16.219177 -2.139437 54.177567 19.273552 2.018277 -7.877632 -2.471030 3.454126 -20.273901 10.902056 9.384191 28.290436 -0.697661 -0.502281 -10.695655 6.964340 -15.042828 -20.215519 -8.358274 -9.553784 28.479301 0.618130 0.527557 -10.697510 -7.750198 12.825422 
0.723888 43.147030 34.583057 -4.179826 -0.000000 180.000000 2.013110 -0.455417 -0.327499 22.332008 -0.288246 -1.582532 0.699167 0.466959 -0.043821 0.469675 0.000000 0.000000 -21.206936 -6.693753 0.010579 -59.970470 -16.440088 -2.439027 -52.922478 -18.769112 2.495939 4.636095 0.705400 2.022259 23.332726 8.712609 -0.835089 60.333397 16.409967 -2.260754 53.337677 18.980785 2.319628 -7.290581 -2.723426 3.024589 -18.657198 10.832402 9.264699 27.902874 -0.752009 -0.498607 -10.695654 6.964340 -15.042828 -18.632872 -8.167080 -9.148678 28.092361 0.662093 0.529239 -10.640641 -8.218577 12.829422 
0.723888 43.147030 34.507298 -2.902579 -0.000000 180.000000 1.735263 -0.455432 -0.327364 23.387190 -0.288403 -1.582521 0.874562 0.583712 -0.057780 0.587201 0.000000 0.000000 -21.546154 -6.786722 -0.371318 -59.758533 -16.618959 -2.577274 -52.041908 -18.453939 2.806070 4.024969 0.864755 1.556389 23.663376 8.772913 -1.228859 60.159077 16.600424 -2.382801 52.500328 18.683674 2.616082 -6.701216 -2.971533 2.592165 -17.036680 10.765928 9.142978 27.515257 -0.806338 -0.494565 -10.695654 6.964340 -15.042828 -17.045395 -7.986569 -8.737477 27.705362 0.706071 0.530623 -10.583659 -8.687049 12.833899 
0.723888 43.147030 34.431538 -1.623749 -0.000000 180.000000 1.457399 -0.455447 -0.327229 24.443270 -0.288560 -1.582512 1.049978 0.700538 -0.071386 0.704737 0.000000 0.000000 -21.886112 -6.877455 -0.753906 -59.545937 -16.797348 -2.716347 -51.164215 -18.134098 3.110681 3.412256 1.019199 1.088608 23.994556 8.830979 -1.623106 59.984150 16.790529 -2.505583 51.665623 18.382336 2.907568 -6.109598 -3.215281 2.156919 -15.412983 10.702734 9.019156 27.127583 -0.860646 -0.490155 -10.695655 6.964340 -15.042826 -15.453774 -7.817042 -8.320627 27.318314 0.750063 0.531711 -10.526557 -9.155595 12.838853 
0.723888 43.147030 34.355774 -0.343651 -0.000000 180.000000 1.179523 -0.455462 -0.327094 25.500067 -0.288717 -1.582507 1.225416 0.817435 -0.084638 0.822282 0.000000 0.000000 -22.226786 -6.965945 -1.137159 -59.332672 -16.975250 -2.856250 -50.289505 -17.809717 3.409701 2.798043 1.168681 0.619003 24.326225 8.886800 -2.017803 59.808601 16.980280 -2.629097 50.833645 18.076883 3.194024 -5.515791 -3.454604 1.718915 -13.786768 10.642916 8.893379 26.739859 -0.914927 -0.485377 -10.695655 6.964340 -15.042828 -13.858725 -7.658779 -7.898592 26.931229 0.794066 0.532501 -10.469330 -9.624199 12.844290 
0.723888 43.147030 34.280014 0.937396 0.000000 180.000000 0.901636 -0.455475 -0.326959 26.557407 -0.288875 -1.582504 1.400876 0.934401 -0.097536 0.939835 0.000000 0.000000 -22.568157 -7.052180 -1.521049 -59.118744 -17.152657 -2.996984 -49.417835 -17.480915 3.703058 2.182421 1.313156 0.147664 24.658361 8.940364 -2.412920 59.632458 17.169676 -2.753351 50.004436 17.767416 3.475384 -4.919858 -3.689436 1.278220 -12.158685 10.586559 8.765787 26.352098 -0.969178 -0.480232 -10.695655 6.964340 -15.042828 -12.260964 -7.512033 -7.471851 26.544117 0.838076 0.532994 -10.411968 -10.092845 12.850209 
0.723888 43.147030 34.204254 2.219072 0.000000 180.000000 0.623743 -0.455488 -0.326824 27.615103 -0.289032 -1.582504 1.576357 1.051434 -0.110079 1.057398 0.000000 0.000000 -22.910177 -7.136143 -1.905547 -58.904152 -17.329565 -3.138549 -48.549316 -17.147829 3.990689 1.565478 1.452579 -0.325315 24.990938 8.991671 -2.808430 59.455677 17.358707 -2.878344 49.178089 17.454042 3.751598 -4.321867 -3.919713 0.834904 -10.529403 10.533744 8.636530 25.964310 -1.023396 -0.474719 -10.695655 6.964340 -15.042828 -10.661222 -7.377020 -7.040898 26.156979 0.882090 0.533190 -10.354467 -10.561519 12.856615 
0.723888 43.147030 34.128494 3.501059 0.000000 180.000000 0.345847 -0.455501 -0.326689 28.672985 -0.289190 -1.582507 1.751860 1.168531 -0.122266 1.174969 0.000000 0.000000 -23.252848 -7.217833 -2.290630 -58.688900 -17.505968 -3.280946 -47.683983 -16.810581 4.272532 0.947308 1.586911 -0.799844 25.323919 9.040705 -3.204304 59.278290 17.547369 -3.004080 48.354664 17.136881 4.022608 -3.721887 -4.145372 0.389039 -8.899588 10.484545 8.505766 25.576496 -1.077577 -0.468838 -10.695656 6.964340 -15.042828 -9.060249 -7.253943 -6.606245 25.769823 0.926106 0.533088 -10.296821 -11.030197 12.863509 
0.723888 43.147030 34.052731 4.783034 0.000000 180.000000 0.067951 -0.455512 -0.326554 29.730864 -0.289347 -1.582513 1.927386 1.285692 -0.134098 1.292548 0.000000 0.000000 -23.596115 -7.297231 -2.676267 -58.472961 -17.681854 -3.424177 -46.821922 -16.469309 4.548537 0.328006 1.716113 -1.275826 25.657274 9.087465 -3.600511 59.100288 17.735662 -3.130559 47.534203 16.816034 4.288369 -3.119990 -4.366354 -0.059300 -7.269913 10.439021 8.373652 25.188679 -1.131717 -0.462592 -10.695654 6.964339 -15.042826 -7.458792 -7.142961 -6.168407 25.382669 0.970120 0.532689 -10.239025 -11.498872 12.870898 
0.723888 43.147030 33.976971 6.064677 0.000000 180.000000 -0.209942 -0.455523 -0.326418 30.788567 -0.289504 -1.582523 2.102935 1.402915 -0.145573 1.410135 0.000000 0.000000 -23.939966 -7.374332 -3.062430 -58.256363 -17.857224 -3.568242 -45.963192 -16.124147 4.818647 -0.292334 1.840148 -1.753166 25.990986 9.131946 -3.997025 58.921665 17.923578 -3.257785 46.716774 16.491627 4.548836 -2.516250 -4.582601 -0.510037 -5.641048 10.397228 8.240349 24.800846 -1.185811 -0.455978 -10.695654 6.964339 -15.042826 -5.857613 -7.044202 -5.727912 24.995516 1.014129 0.531992 -10.181072 -11.967525 12.878784 
0.723888 43.147030 33.901211 7.345668 0.000000 180.000000 -0.487829 -0.455534 -0.326283 31.845901 -0.289661 -1.582534 2.278506 1.520196 -0.156692 1.527729 0.000000 0.000000 -24.284370 -7.449127 -3.449091 -58.039089 -18.032068 -3.713141 -45.107861 -15.775229 5.082819 -0.913614 1.958984 -2.231766 26.325016 9.174140 -4.393814 58.742413 18.111109 -3.385759 45.902428 16.163767 4.803969 -1.910742 -4.794057 -0.963095 -4.013661 10.359209 8.106024 24.413019 -1.239857 -0.448999 -10.695655 6.964340 -15.042828 -4.257467 -6.957772 -5.285295 24.608374 1.058130 0.530998 -10.122954 -12.436139 12.887168 
0.723888 43.147030 33.825447 8.625688 0.000000 180.000000 -0.765705 -0.455543 -0.326148 32.902702 -0.289818 -1.582549 2.454100 1.637536 -0.167455 1.645331 0.000000 0.000000 -24.629288 -7.521603 -3.836221 -57.821152 -18.206383 -3.858879 -44.255981 -15.422701 5.341020 -1.535736 2.072592 -2.711527 26.659344 9.214048 -4.790852 58.562534 18.298250 -3.514485 45.091209 15.832579 5.053730 -1.303546 -5.000669 -1.418393 -2.388417 10.324996 7.970839 24.025217 -1.293851 -0.441654 -10.695655 6.964340 -15.042828 -2.659118 -6.883736 -4.841093 24.221258 1.102121 0.529707 -10.064662 -12.904692 12.896051 
